<svg xmlns="http://www.w3.org/2000/svg" version="1.1" xmlns:xlink="http://www.w3.org/1999/xlink" xmlns:svgjs="http://svgjs.dev/svgjs" width="1500" height="806" viewBox="0 0 1500 806"><g transform="matrix(1,0,0,1,-0.9090909090909918,-0.6044711569768992)"><svg viewBox="0 0 396 213" data-background-color="#ffffff" preserveAspectRatio="xMidYMid meet" height="806" width="1500" xmlns="http://www.w3.org/2000/svg" xmlns:xlink="http://www.w3.org/1999/xlink"><g id="tight-bounds" transform="matrix(1,0,0,1,0.2400000000000091,0.15974237771226285)"><svg viewBox="0 0 395.52 212.68051524457547" height="212.68051524457547" width="395.52"><g><svg viewBox="0 0 395.52 212.68051524457547" height="212.68051524457547" width="395.52"><g transform="matrix(1,0,0,1,0,131.4450907402542)"><svg viewBox="0 0 395.52 81.2354245043213" height="81.2354245043213" width="395.52"><g id="textblocktransform"><svg viewBox="0 0 395.52 81.2354245043213" height="81.2354245043213" width="395.52" id="textblock"><g><svg viewBox="0 0 395.52 81.2354245043213" height="81.2354245043213" width="395.52"><g transform="matrix(1,0,0,1,0,0)"><svg width="395.52" viewBox="2.5 -39.65 196.68 40.4" height="81.2354245043213" data-palette-color="#ffffff"><path d="M24.35-34.55L24.35-9.7Q24.35-5.15 21.53-2.23 18.7 0.7 13.45 0.7L13.45 0.7Q8.1 0.7 5.3-2.18 2.5-5.05 2.5-9.7L2.5-9.7 2.5-34.55 8.85-34.55 8.85-10Q8.85-7.1 9.95-5.68 11.05-4.25 13.45-4.25L13.45-4.25Q15.8-4.25 16.9-5.68 18-7.1 18-10L18-10 18-34.55 24.35-34.55ZM42.05-27.15Q44.9-27.15 46.55-25.1 48.2-23.05 48.2-19.6L48.2-19.6 48.2 0 42.05 0 42.05-18.9Q42.05-20.8 41.52-21.63 41-22.45 40-22.45L40-22.45Q37.9-22.45 35.85-18.5L35.85-18.5 35.85 0 29.7 0 29.7-26.45 35.05-26.45 35.5-23Q36.85-25.1 38.37-26.13 39.9-27.15 42.05-27.15L42.05-27.15ZM53.75-26.45L59.9-26.45 59.9 0 53.75 0 53.75-26.45ZM56.8-39.65Q58.45-39.65 59.47-38.6 60.5-37.55 60.5-35.9L60.5-35.9Q60.5-34.3 59.47-33.25 58.45-32.2 56.8-32.2L56.8-32.2Q55.15-32.2 54.12-33.25 53.1-34.3 53.1-35.9L53.1-35.9Q53.1-37.55 54.12-38.6 55.15-39.65 56.8-39.65L56.8-39.65ZM76.74-5L78.89-1.2Q76.44 0.75 73.14 0.75L73.14 0.75Q69.69 0.75 67.89-1.23 66.09-3.2 66.09-6.6L66.09-6.6 66.09-22 62.99-22 62.99-26.45 66.09-26.45 66.09-32.3 72.24-33.05 72.24-26.45 77.24-26.45 76.64-22 72.24-22 72.24-6.6Q72.24-4.2 74.29-4.2L74.29-4.2Q74.94-4.2 75.44-4.38 75.94-4.55 76.74-5L76.74-5ZM100.29-13.85Q100.29-13.4 100.14-11.3L100.14-11.3 86.49-11.3Q86.69-7.2 87.92-5.58 89.14-3.95 91.39-3.95L91.39-3.95Q92.94-3.95 94.19-4.48 95.44-5 96.89-6.15L96.89-6.15 99.44-2.65Q95.94 0.75 91.04 0.75L91.04 0.75Q85.84 0.75 83.06-2.85 80.29-6.45 80.29-13L80.29-13Q80.29-19.55 82.94-23.35 85.59-27.15 90.44-27.15L90.44-27.15Q95.09-27.15 97.69-23.78 100.29-20.4 100.29-13.85L100.29-13.85ZM94.29-15.3L94.29-15.65Q94.29-19.4 93.39-21.13 92.49-22.85 90.49-22.85L90.49-22.85Q88.64-22.85 87.67-21.18 86.69-19.5 86.49-15.3L86.49-15.3 94.29-15.3ZM128.24-27.15Q130.89-27.15 132.49-25.1 134.09-23.05 134.09-19.6L134.09-19.6 134.09 0 128.04 0 128.04-18.95Q128.04-20.85 127.54-21.68 127.04-22.5 126.09-22.5L126.09-22.5Q124.14-22.5 122.34-18.8L122.34-18.8 122.34 0 116.34 0 116.34-18.95Q116.34-22.5 114.44-22.5L114.44-22.5Q112.39-22.5 110.64-18.8L110.64-18.8 110.64 0 104.59 0 104.59-26.45 109.94-26.45 110.34-23.05Q112.94-27.15 116.59-27.15L116.59-27.15Q118.44-27.15 119.79-26 121.14-24.85 121.84-22.75L121.84-22.75Q124.49-27.15 128.24-27.15L128.24-27.15ZM158.44-13.85Q158.44-13.4 158.29-11.3L158.29-11.3 144.64-11.3Q144.84-7.2 146.06-5.58 147.29-3.95 149.54-3.95L149.54-3.95Q151.09-3.95 152.34-4.48 153.59-5 155.04-6.15L155.04-6.15 157.59-2.65Q154.09 0.75 149.19 0.75L149.19 0.75Q143.99 0.75 141.21-2.85 138.44-6.45 138.44-13L138.44-13Q138.44-19.55 141.09-23.35 143.74-27.15 148.59-27.15L148.59-27.15Q153.24-27.15 155.84-23.78 158.44-20.4 158.44-13.85L158.44-13.85ZM152.44-15.3L152.44-15.65Q152.44-19.4 151.54-21.13 150.64-22.85 148.64-22.85L148.64-22.85Q146.79-22.85 145.81-21.18 144.84-19.5 144.64-15.3L144.64-15.3 152.44-15.3ZM181.58-13.85Q181.58-13.4 181.43-11.3L181.43-11.3 167.78-11.3Q167.98-7.2 169.21-5.58 170.43-3.95 172.68-3.95L172.68-3.95Q174.23-3.95 175.48-4.48 176.73-5 178.18-6.15L178.18-6.15 180.73-2.65Q177.23 0.75 172.33 0.75L172.33 0.75Q167.13 0.75 164.36-2.85 161.58-6.45 161.58-13L161.58-13Q161.58-19.55 164.23-23.35 166.88-27.15 171.73-27.15L171.73-27.15Q176.38-27.15 178.98-23.78 181.58-20.4 181.58-13.85L181.58-13.85ZM175.58-15.3L175.58-15.65Q175.58-19.4 174.68-21.13 173.78-22.85 171.78-22.85L171.78-22.85Q169.93-22.85 168.96-21.18 167.98-19.5 167.78-15.3L167.78-15.3 175.58-15.3ZM197.03-5L199.18-1.2Q196.73 0.75 193.43 0.75L193.43 0.75Q189.98 0.75 188.18-1.23 186.38-3.2 186.38-6.6L186.38-6.6 186.38-22 183.28-22 183.28-26.45 186.38-26.45 186.38-32.3 192.53-33.05 192.53-26.45 197.53-26.45 196.93-22 192.53-22 192.53-6.6Q192.53-4.2 194.58-4.2L194.58-4.2Q195.23-4.2 195.73-4.38 196.23-4.55 197.03-5L197.03-5Z" opacity="1" transform="matrix(1,0,0,1,0,0)" fill="#ffffff" class="wordmark-text-0" data-fill-palette-color="primary" id="text-0"></path></svg></g></svg></g></svg></g></svg></g><g transform="matrix(1,0,0,1,88.1656756365749,0)"><svg viewBox="0 0 219.18864872685018 112.26735666497204" height="112.26735666497204" width="219.18864872685018"><g><svg xmlns="http://www.w3.org/2000/svg" xmlns:xlink="http://www.w3.org/1999/xlink" version="1.1" x="0" y="0" viewBox="4 24 82 42" enable-background="new 0 0 90 90" xml:space="preserve" height="112.26735666497204" width="219.18864872685018" class="icon-icon-0" data-fill-palette-color="accent" id="icon-0"></svg></g></svg></g><g></g></svg></g><defs></defs><mask id="6a71d3c9-f1c0-4154-8a72-f1d1f05173af"><g id="SvgjsG3683"><svg viewBox="0 0 395.52 212.68051524457547" height="212.68051524457547" width="395.52"><g><svg viewBox="0 0 395.52 212.68051524457547" height="212.68051524457547" width="395.52"><g transform="matrix(1,0,0,1,0,131.4450907402542)"><svg viewBox="0 0 395.52 81.2354245043213" height="81.2354245043213" width="395.52"><g id="SvgjsG3682"><svg viewBox="0 0 395.52 81.2354245043213" height="81.2354245043213" width="395.52" id="SvgjsSvg3681"><g><svg viewBox="0 0 395.52 81.2354245043213" height="81.2354245043213" width="395.52"><g transform="matrix(1,0,0,1,0,0)"><svg width="395.52" viewBox="2.5 -39.65 196.68 40.4" height="81.2354245043213" data-palette-color="#ffffff"><path d="M24.35-34.55L24.35-9.7Q24.35-5.15 21.53-2.23 18.7 0.7 13.45 0.7L13.45 0.7Q8.1 0.7 5.3-2.18 2.5-5.05 2.5-9.7L2.5-9.7 2.5-34.55 8.85-34.55 8.85-10Q8.85-7.1 9.95-5.68 11.05-4.25 13.45-4.25L13.45-4.25Q15.8-4.25 16.9-5.68 18-7.1 18-10L18-10 18-34.55 24.35-34.55ZM42.05-27.15Q44.9-27.15 46.55-25.1 48.2-23.05 48.2-19.6L48.2-19.6 48.2 0 42.05 0 42.05-18.9Q42.05-20.8 41.52-21.63 41-22.45 40-22.45L40-22.45Q37.9-22.45 35.85-18.5L35.85-18.5 35.85 0 29.7 0 29.7-26.45 35.05-26.45 35.5-23Q36.85-25.1 38.37-26.13 39.9-27.15 42.05-27.15L42.05-27.15ZM53.75-26.45L59.9-26.45 59.9 0 53.75 0 53.75-26.45ZM56.8-39.65Q58.45-39.65 59.47-38.6 60.5-37.55 60.5-35.9L60.5-35.9Q60.5-34.3 59.47-33.25 58.45-32.2 56.8-32.2L56.8-32.2Q55.15-32.2 54.12-33.25 53.1-34.3 53.1-35.9L53.1-35.9Q53.1-37.55 54.12-38.6 55.15-39.65 56.8-39.65L56.8-39.65ZM76.74-5L78.89-1.2Q76.44 0.75 73.14 0.75L73.14 0.75Q69.69 0.75 67.89-1.23 66.09-3.2 66.09-6.6L66.09-6.6 66.09-22 62.99-22 62.99-26.45 66.09-26.45 66.09-32.3 72.24-33.05 72.24-26.45 77.24-26.45 76.64-22 72.24-22 72.24-6.6Q72.24-4.2 74.29-4.2L74.29-4.2Q74.94-4.2 75.44-4.38 75.94-4.55 76.74-5L76.74-5ZM100.29-13.85Q100.29-13.4 100.14-11.3L100.14-11.3 86.49-11.3Q86.69-7.2 87.92-5.58 89.14-3.95 91.39-3.95L91.39-3.95Q92.94-3.95 94.19-4.48 95.44-5 96.89-6.15L96.89-6.15 99.44-2.65Q95.94 0.75 91.04 0.75L91.04 0.75Q85.84 0.75 83.06-2.85 80.29-6.45 80.29-13L80.29-13Q80.29-19.55 82.94-23.35 85.59-27.15 90.44-27.15L90.44-27.15Q95.09-27.15 97.69-23.78 100.29-20.4 100.29-13.85L100.29-13.85ZM94.29-15.3L94.29-15.65Q94.29-19.4 93.39-21.13 92.49-22.85 90.49-22.85L90.49-22.85Q88.64-22.85 87.67-21.18 86.69-19.5 86.49-15.3L86.49-15.3 94.29-15.3ZM128.24-27.15Q130.89-27.15 132.49-25.1 134.09-23.05 134.09-19.6L134.09-19.6 134.09 0 128.04 0 128.04-18.95Q128.04-20.85 127.54-21.68 127.04-22.5 126.09-22.5L126.09-22.5Q124.14-22.5 122.34-18.8L122.34-18.8 122.34 0 116.34 0 116.34-18.95Q116.34-22.5 114.44-22.5L114.44-22.5Q112.39-22.5 110.64-18.8L110.64-18.8 110.64 0 104.59 0 104.59-26.45 109.94-26.45 110.34-23.05Q112.94-27.15 116.59-27.15L116.59-27.15Q118.44-27.15 119.79-26 121.14-24.85 121.84-22.75L121.84-22.75Q124.49-27.15 128.24-27.15L128.24-27.15ZM158.44-13.85Q158.44-13.4 158.29-11.3L158.29-11.3 144.64-11.3Q144.84-7.2 146.06-5.58 147.29-3.95 149.54-3.95L149.54-3.95Q151.09-3.95 152.34-4.48 153.59-5 155.04-6.15L155.04-6.15 157.59-2.65Q154.09 0.75 149.19 0.75L149.19 0.75Q143.99 0.75 141.21-2.85 138.44-6.45 138.44-13L138.44-13Q138.44-19.55 141.09-23.35 143.74-27.15 148.59-27.15L148.59-27.15Q153.24-27.15 155.84-23.78 158.44-20.4 158.44-13.85L158.44-13.85ZM152.44-15.3L152.44-15.65Q152.44-19.4 151.54-21.13 150.64-22.85 148.64-22.85L148.64-22.85Q146.79-22.85 145.81-21.18 144.84-19.5 144.64-15.3L144.64-15.3 152.44-15.3ZM181.58-13.85Q181.58-13.4 181.43-11.3L181.43-11.3 167.78-11.3Q167.98-7.2 169.21-5.58 170.43-3.95 172.68-3.95L172.68-3.95Q174.23-3.95 175.48-4.48 176.73-5 178.18-6.15L178.18-6.15 180.73-2.65Q177.23 0.75 172.33 0.75L172.33 0.75Q167.13 0.75 164.36-2.85 161.58-6.45 161.58-13L161.58-13Q161.58-19.55 164.23-23.35 166.88-27.15 171.73-27.15L171.73-27.15Q176.38-27.15 178.98-23.78 181.58-20.4 181.58-13.85L181.58-13.85ZM175.58-15.3L175.58-15.65Q175.58-19.4 174.68-21.13 173.78-22.85 171.78-22.85L171.78-22.85Q169.93-22.85 168.96-21.18 167.98-19.5 167.78-15.3L167.78-15.3 175.58-15.3ZM197.03-5L199.18-1.2Q196.73 0.75 193.43 0.75L193.43 0.75Q189.98 0.75 188.18-1.23 186.38-3.2 186.38-6.6L186.38-6.6 186.38-22 183.28-22 183.28-26.45 186.38-26.45 186.38-32.3 192.53-33.05 192.53-26.45 197.53-26.45 196.93-22 192.53-22 192.53-6.6Q192.53-4.2 194.58-4.2L194.58-4.2Q195.23-4.2 195.73-4.38 196.23-4.55 197.03-5L197.03-5Z" opacity="1" transform="matrix(1,0,0,1,0,0)" fill="black" class="wordmark-text-0" id="SvgjsPath3680"></path></svg></g></svg></g></svg></g></svg></g><g transform="matrix(1,0,0,1,88.1656756365749,0)"><svg viewBox="0 0 219.18864872685018 112.26735666497204" height="112.26735666497204" width="219.18864872685018"><g><svg xmlns="http://www.w3.org/2000/svg" xmlns:xlink="http://www.w3.org/1999/xlink" version="1.1" x="0" y="0" viewBox="4 24 82 42" enable-background="new 0 0 90 90" xml:space="preserve" height="112.26735666497204" width="219.18864872685018" class="icon-icon-0" data-fill-palette-color="accent" id="SvgjsSvg3679"><polygon points="71.57,36.655 68,38.73 68,24 4,24 4,66 68,66 68,51.271 71.57,53.345 86,61.69 86,45 86,28.31 " fill="white"></polygon></svg></g></svg></g><g></g></svg></g><defs><mask></mask></defs></svg><rect width="395.52" height="212.68051524457547" fill="black" stroke="none" visibility="hidden"></rect></g></mask><linearGradient x1="0.054" x2="0.941" y1="0.5" y2="0.5" id="6ed0271e-e32c-43a2-9983-98c9317d5d35"><stop stop-color="#0f3054" offset="0"></stop><stop stop-color="#3b8dcb" offset="0.498"></stop><stop stop-color="#0f3054" offset="1"></stop></linearGradient><rect width="395.52" height="212.68051524457547" fill="url(#6ed0271e-e32c-43a2-9983-98c9317d5d35)" mask="url(#6a71d3c9-f1c0-4154-8a72-f1d1f05173af)" data-fill-palette-color="accent"></rect></svg><rect width="395.52" height="212.68051524457547" fill="none" stroke="none" visibility="hidden"></rect></g></svg></g></svg>